<?xml version="1.0" standalone="no"?>
<!DOCTYPE svg PUBLIC "-//W3C//DTD SVG 20010904//EN"
 "http://www.w3.org/TR/2001/REC-SVG-20010904/DTD/svg10.dtd">
<svg version="1.0" xmlns="http://www.w3.org/2000/svg"
 width="200.000000pt" height="200.000000pt" viewBox="0 0 200.000000 200.000000"
 preserveAspectRatio="xMidYMid meet">
<metadata>
Created by potrace 1.14, written by Peter Selinger 2001-2017
</metadata>
<g transform="translate(0.000000,200.000000) scale(0.100000,-0.100000)"
fill="#000000" stroke="none">
<path d="M660 1650 c0 -25 -4 -30 -24 -30 -19 0 -25 -6 -28 -27 -2 -20 -9 -29
-25 -31 l-23 -3 0 -309 c0 -236 3 -311 13 -317 6 -4 75 -8 152 -8 101 -1 159
-6 207 -19 65 -17 71 -17 135 0 50 14 106 18 208 19 77 0 146 4 153 8 9 6 12
81 12 317 l0 309 -22 3 c-17 2 -24 11 -26 31 -3 21 -9 27 -28 27 -20 0 -24 5
-24 30 0 29 -2 30 -43 30 -58 0 -183 -33 -245 -64 l-50 -26 -59 26 c-72 32
-194 64 -245 64 -36 0 -38 -2 -38 -30z m151 -25 c32 -9 86 -27 119 -42 l60
-26 0 -264 c0 -208 -3 -264 -12 -260 -86 38 -151 61 -202 71 l-61 13 -3 261
c-3 301 -13 276 99 247z m479 -249 l0 -264 -73 -16 c-40 -9 -101 -30 -135 -46
l-62 -29 0 264 c0 251 1 265 19 275 11 5 22 10 25 10 3 0 6 -31 6 -70 0 -66
10 -89 24 -54 6 15 8 15 26 -1 20 -18 20 -17 20 73 l0 91 43 11 c23 6 47 13
52 15 6 2 20 4 33 4 l22 1 0 -264z m-610 -45 l0 -249 43 -7 c85 -13 276 -79
264 -91 -1 -2 -39 8 -82 22 -47 15 -116 28 -167 31 l-88 6 0 268 c0 232 2 269
15 269 13 0 15 -34 15 -249z m670 -20 l0 -268 -87 -6 c-52 -3 -121 -16 -168
-31 -43 -14 -81 -24 -82 -22 -12 12 179 78 265 91 l42 7 0 249 c0 215 2 249
15 249 13 0 15 -37 15 -269z"/>
<path d="M1288 793 c-22 -6 -22 -10 -2 -31 15 -14 16 -33 10 -141 -4 -81 -11
-128 -19 -133 -7 -4 8 -8 33 -8 31 0 40 3 31 9 -9 6 -16 32 -19 71 -4 48 -1
65 13 80 25 28 54 25 65 -6 12 -30 2 -136 -14 -146 -6 -4 8 -8 32 -8 40 0 42
1 28 16 -12 11 -16 35 -16 85 0 56 -4 73 -20 89 -25 25 -31 25 -64 -1 l-26
-20 0 75 c0 42 -3 75 -7 75 -5 -1 -16 -3 -25 -6z"/>
<path d="M370 770 c0 -5 5 -10 10 -10 6 0 10 -50 10 -130 0 -112 -2 -130 -17
-139 -14 -8 -2 -11 50 -12 37 -2 77 -3 89 -3 18 -1 24 7 30 38 11 50 4 56 -17
16 -15 -28 -20 -31 -58 -28 l-42 3 -3 58 c-3 51 -1 57 17 57 11 0 27 -10 35
-22 15 -21 16 -20 15 32 0 47 -2 52 -11 33 -14 -28 -58 -32 -58 -5 0 9 -3 34
-6 55 l-7 37 46 0 c40 0 48 -4 61 -27 l15 -28 1 43 0 42 -80 0 c-47 0 -80 -4
-80 -10z"/>
<path d="M1570 768 c0 -4 5 -10 10 -13 6 -4 10 -58 10 -130 0 -108 -2 -125
-17 -134 -14 -8 0 -10 53 -11 86 0 109 17 109 82 0 33 -6 45 -27 61 -25 19
-25 20 -7 38 28 28 24 73 -7 98 -20 16 -39 20 -75 19 -27 -1 -49 -6 -49 -10z
m108 -31 c22 -17 14 -65 -13 -83 -39 -25 -55 -12 -55 45 0 60 23 73 68 38z m4
-134 c28 -25 24 -81 -6 -95 -42 -19 -56 -5 -56 57 0 50 2 55 22 55 12 0 30 -7
40 -17z"/>
<path d="M691 713 c0 -7 -10 -21 -22 -32 -13 -12 -17 -21 -10 -26 6 -3 11 -34
11 -68 0 -92 34 -141 75 -107 22 18 18 29 -6 23 -29 -8 -39 12 -39 84 0 59 1
62 25 65 33 4 33 22 1 26 -16 2 -26 11 -29 25 -2 12 -5 17 -6 10z"/>
<path d="M823 675 c-48 -33 -54 -136 -10 -182 25 -28 57 -29 88 -3 l24 20 -40
-6 c-45 -7 -59 3 -70 49 l-7 27 57 0 58 0 -6 37 c-10 58 -54 86 -94 58z m51
-21 c9 -8 16 -24 16 -35 0 -17 -6 -20 -37 -17 -32 2 -37 6 -35 23 2 11 11 26
20 33 20 15 17 15 36 -4z"/>
<path d="M982 674 c-23 -16 -29 -65 -7 -54 6 3 9 13 8 23 -2 15 3 18 25 15 22
-2 28 -8 30 -35 3 -27 0 -33 -16 -33 -30 0 -72 -38 -72 -65 0 -43 50 -71 78
-43 8 8 15 8 26 -2 9 -7 23 -10 31 -6 18 7 20 27 3 24 -9 -2 -14 21 -18 79 -3
45 -9 86 -15 91 -20 19 -51 22 -73 6z m56 -136 c-2 -28 -7 -33 -28 -33 -35 0
-41 41 -8 54 36 15 39 13 36 -21z"/>
<path d="M1150 661 c-26 -26 -30 -37 -30 -86 0 -46 4 -60 25 -80 29 -30 55
-32 86 -5 l24 20 -42 -6 c-35 -5 -43 -3 -52 14 -19 35 -14 109 9 132 24 24 53
16 44 -12 -5 -16 -2 -19 13 -16 17 4 21 34 5 49 -24 23 -53 19 -82 -10z"/>
<path d="M72 670 c9 -6 31 -53 48 -105 17 -52 36 -95 40 -95 5 0 18 28 28 61
21 68 22 68 46 -8 10 -29 22 -53 26 -53 5 0 21 39 36 88 14 48 33 95 42 105
14 16 13 17 -23 17 -29 0 -35 -3 -27 -13 8 -9 6 -32 -7 -82 l-18 -70 -21 70
c-20 65 -21 71 -5 83 14 10 10 12 -27 12 -34 0 -41 -3 -32 -12 16 -16 15 -52
-2 -108 l-13 -45 -22 70 c-19 65 -20 71 -4 83 14 10 9 12 -33 12 -37 -1 -45
-3 -32 -10z"/>
<path d="M1769 648 c10 -18 31 -65 46 -104 23 -62 25 -75 16 -111 -13 -49 -41
-78 -41 -43 0 13 -5 20 -12 18 -19 -7 -16 -39 5 -52 30 -18 50 20 91 166 21
73 42 139 48 145 8 10 2 13 -27 13 -32 0 -36 -2 -25 -15 10 -12 10 -27 0 -75
-7 -33 -16 -60 -20 -60 -7 0 -40 99 -40 123 0 8 6 18 13 20 6 3 -7 6 -30 6
l-42 1 18 -32z"/>
<path d="M660 365 c0 -45 1 -46 28 -43 21 2 26 8 24 23 -2 11 -4 29 -5 40 -1
12 -11 21 -24 23 -21 3 -23 -1 -23 -43z m38 23 c-6 -18 -28 -21 -28 -4 0 9 7
16 16 16 9 0 14 -5 12 -12z m5 -43 c1 -5 -6 -11 -15 -13 -11 -2 -18 3 -18 13
0 17 30 18 33 0z"/>
<path d="M961 388 c-12 -33 2 -63 29 -63 29 0 45 25 36 58 -8 35 -53 38 -65 5z
m54 -23 c0 -23 -4 -30 -20 -30 -15 0 -21 8 -23 33 -3 30 -1 33 20 30 18 -2 23
-9 23 -33z"/>
<path d="M1129 389 c-8 -16 -8 -28 0 -45 14 -31 56 -33 64 -4 3 11 1 20 -4 20
-5 0 -9 -7 -9 -16 0 -31 -35 -10 -38 23 -3 28 0 32 25 36 l28 4 -27 2 c-19 1
-31 -6 -39 -20z"/>
<path d="M1297 395 c-4 -8 4 -22 18 -34 32 -24 32 -35 0 -29 -14 3 -25 1 -25
-3 0 -13 48 -11 55 2 4 6 -2 21 -14 33 -26 27 -26 33 -3 39 13 4 12 5 -4 6
-12 0 -24 -6 -27 -14z"/>
<path d="M819 358 c-4 -34 -3 -38 17 -38 13 0 25 4 28 9 4 5 -3 7 -13 4 -16
-4 -20 1 -23 29 l-3 33 -6 -37z"/>
</g>
</svg>
